# xmcd
#
# Track frame offsets:
#	150
#	17008
#	34769
#	51949
#	67101
#	83686
#	102155
#	122351
#	135678
#	148680
#	164598
#	177316
#	190506
#	232783
#
# Disc length: 3259 seconds
#
# Revision: 0
# Processed by: cddbd v1.5.1PL0 Copyright (c) Steve Scherf et al.
# Submitted via: audiograbber 1.83.01
#
DISCID=b50cb90e
DTITLE=Eva a Vasek  - To byval raj 2
DYEAR=2005
DGENRE=Folk
TTITLE0=Ma prani vis
TTITLE1=Slysis jak zvoni
TTITLE2=La paloma
TTITLE3=Drahomiro
TTITLE4=Odkud sny prichazi
TTITLE5=Svita
TTITLE6=Louceni s kamarady
TTITLE7=A my spolu jen tak jdem
TTITLE8=Proudy z hor
TTITLE9=Vzacny host
TTITLE10=Stastne hvezdy
TTITLE11=Pluji lodi do Triany
TTITLE12=Zcervena, zcervena - smes pisni
TTITLE13=Srdce me jak housle zni
EXTD=
EXTT0=
EXTT1=
EXTT2=
EXTT3=
EXTT4=
EXTT5=
EXTT6=
EXTT7=
EXTT8=
EXTT9=
EXTT10=
EXTT11=
EXTT12=
EXTT13=
PLAYORDER=
